HIERARCHY
ROOT root
{
	OFFSET 0.000000 0.000000 0.000000
	CHANNELS 6 Xposition Yposition Zposition Zrotation Yrotation Xrotation
	JOINT lhip
	{
		OFFSET 0.058581 -0.082280 -0.017664
		CHANNELS 3 Zrotation Yrotation Xrotation
		JOINT lknee
		{
			OFFSET 0.043451 -0.386469 0.008037
			CHANNELS 3 Zrotation Yrotation Xrotation
			JOINT lankle
			{
				OFFSET -0.014790 -0.426874 -0.037428
				CHANNELS 3 Zrotation Yrotation Xrotation
				JOINT ltoe
				{
					OFFSET 0.041054 -0.060286 0.122042
					CHANNELS 3 Zrotation Yrotation Xrotation
					End Site
					{
						OFFSET 0.000000 0.000000 0.000000
					}
				}
			}
		}
	}
	JOINT rhip
	{
		OFFSET -0.060310 -0.090513 -0.013543
		CHANNELS 3 Zrotation Yrotation Xrotation
		JOINT rknee
		{
			OFFSET -0.043257 -0.383688 -0.004843
			CHANNELS 3 Zrotation Yrotation Xrotation
			JOINT rankle
			{
				OFFSET 0.019056 -0.420046 -0.034562
				CHANNELS 3 Zrotation Yrotation Xrotation
				JOINT rtoe
				{
					OFFSET -0.034840 -0.062106 0.130323
					CHANNELS 3 Zrotation Yrotation Xrotation
					End Site
					{
						OFFSET 0.000000 0.000000 0.000000
					}
				}
			}
		}
	}
	JOINT lowerback
	{
		OFFSET 0.004439 0.124404 -0.038385
		CHANNELS 3 Zrotation Yrotation Xrotation
		JOINT upperback
		{
			OFFSET 0.004488 0.137956 0.026820
			CHANNELS 3 Zrotation Yrotation Xrotation
			JOINT chest
			{
				OFFSET -0.002265 0.056032 0.002855
				CHANNELS 3 Zrotation Yrotation Xrotation
				JOINT lowerneck
				{
					OFFSET -0.013390 0.211636 -0.033468
					CHANNELS 3 Zrotation Yrotation Xrotation
					JOINT upperneck
					{
						OFFSET 0.010113 0.088937 0.050410
						CHANNELS 3 Zrotation Yrotation Xrotation
						End Site
						{
							OFFSET 0.000000 0.000000 0.000000
						}
					}
				}
				JOINT lclavicle
				{
					OFFSET 0.071702 0.114000 -0.018898
					CHANNELS 3 Zrotation Yrotation Xrotation
					JOINT lshoulder
					{
						OFFSET 0.122921 0.045205 -0.019046
						CHANNELS 3 Zrotation Yrotation Xrotation
						JOINT lelbow
						{
							OFFSET 0.255332 -0.015649 -0.022946
							CHANNELS 3 Zrotation Yrotation Xrotation
							JOINT lwrist
							{
								OFFSET 0.265709 0.012698 -0.007375
								CHANNELS 3 Zrotation Yrotation Xrotation
								End Site
								{
									OFFSET 0.000000 0.000000 0.000000
								}
							}
						}
					}
				}
				JOINT rclavicle
				{
					OFFSET -0.082954 0.112472 -0.023707
					CHANNELS 3 Zrotation Yrotation Xrotation
					JOINT rshoulder
					{
						OFFSET -0.113228 0.046853 -0.008472
						CHANNELS 3 Zrotation Yrotation Xrotation
						JOINT relbow
						{
							OFFSET -0.260127 -0.014369 -0.031269
							CHANNELS 3 Zrotation Yrotation Xrotation
							JOINT rwrist
							{
								OFFSET -0.269108 0.006794 -0.006027
								CHANNELS 3 Zrotation Yrotation Xrotation
								End Site
								{
									OFFSET 0.000000 0.000000 0.000000
								}
							}
						}
					}
				}
			}
		}
	}
}
MOTION
Frames: 8
Frame Time: 0.033333
0.398681 0.155052 1.006696 84.891986 -0.766914 90.635133 3.029127 4.817969 8.620699 -1.620320 2.596273 -6.941736 -1.565802 7.411201 -3.217563 0.000000 -0.000000 0.000000 -5.964442 -3.291212 3.995213 0.385928 -1.758093 -0.682758 8.969564 -4.632800 -5.183411 0.000000 -0.000000 0.000000 -4.641797 1.298944 -12.279613 3.969549 -5.508941 5.847206 -0.448809 2.402108 3.291947 -9.545755 7.822656 26.583449 -3.376310 -12.404139 0.010355 27.162983 2.051043 -18.423236 -4.269880 -47.166658 -19.422417 92.814616 -54.191717 -97.583460 -9.924188 -32.079947 -53.161685 -16.906171 5.702403 -10.844759 18.186252 30.316683 -6.768397 -148.516556 41.553654 -150.405990 -19.103657 8.548376 -30.608728 
0.399101 0.154975 1.006930 84.917572 -0.732773 90.737389 3.031463 4.783176 8.484792 -1.563353 2.813168 -6.873118 -1.649971 7.195782 -3.222413 0.000000 -0.000000 0.000000 -5.933264 -3.304295 3.872189 0.383842 -1.987493 -0.620890 9.082378 -4.418318 -5.262352 0.000000 -0.000000 0.000000 -4.789206 1.390053 -12.345295 4.024272 -5.384248 6.086251 -0.433451 2.426631 3.045235 -9.354457 7.696710 26.994727 -3.225595 -13.116095 -0.005345 27.054595 2.529236 -18.517328 -4.409971 -47.298753 -20.121033 94.417939 -53.429830 -97.755706 -9.609911 -32.452961 -52.083211 -16.505968 5.607865 -10.760136 18.747893 31.382221 -7.436886 -148.241521 41.120932 -148.918780 -19.876539 10.248988 -29.138610 
0.399567 0.154703 1.007050 84.957789 -0.700951 90.816217 3.040126 4.750759 8.387664 -1.513722 3.089678 -6.832142 -1.721368 6.887523 -3.169912 0.000000 -0.000000 0.000000 -5.904260 -3.293523 3.804776 0.392847 -2.348131 -0.566745 9.139056 -4.096522 -5.332782 0.000000 -0.000000 0.000000 -4.886839 1.429618 -12.478481 4.032987 -5.307732 6.474093 -0.494275 2.432022 2.811221 -9.087595 7.443925 27.401187 -3.225153 -13.871889 -0.252446 26.773550 2.886420 -18.596899 -4.527051 -47.454113 -20.856515 96.145231 -52.491832 -97.745279 -9.467620 -32.971584 -50.853579 -15.826556 5.760672 -10.804239 19.835684 33.090698 -8.184977 -147.533501 40.627180 -146.478329 -20.060148 12.466029 -27.229955 
0.399871 0.154367 1.006889 84.961027 -0.619842 90.795865 3.125845 4.692240 8.434173 -1.510740 3.350228 -6.869744 -1.783894 6.678231 -3.138134 0.000000 -0.000000 0.000000 -5.845573 -3.307491 3.813588 0.405668 -2.678891 -0.519077 9.242262 -3.766258 -5.415481 0.000000 -0.000000 0.000000 -5.096516 1.249952 -12.914570 4.140434 -5.234334 7.133335 -0.485728 2.803490 2.865279 -9.001176 7.043207 27.476394 -2.713481 -14.611882 -0.324305 26.343319 2.932983 -18.584011 -4.671173 -48.007533 -21.662216 97.478177 -51.389092 -97.689401 -8.475223 -33.051639 -50.357730 -14.787138 6.410476 -10.756613 20.870114 34.857763 -9.346940 -145.740992 40.310556 -143.436395 -18.995418 14.544102 -26.593053 
0.400010 0.153578 1.007211 84.962323 -0.626939 90.926821 3.083058 4.578005 8.257093 -1.487417 3.656744 -6.838719 -1.748302 6.464936 -3.020198 0.000000 -0.000000 0.000000 -5.789884 -3.186834 3.669090 0.379834 -2.925403 -0.529372 9.197558 -3.665447 -5.494570 0.000000 -0.000000 0.000000 -5.228029 1.554401 -12.675670 4.077034 -5.036263 7.034460 -0.601427 2.743781 2.114709 -8.612303 6.514456 27.926560 -2.191967 -15.489903 -0.246994 25.848380 2.920002 -18.199750 -5.558827 -49.199235 -21.976970 98.190206 -50.448777 -97.532493 -6.455568 -32.661019 -51.261828 -13.647041 6.609102 -10.571569 23.537957 37.515705 -9.347363 -142.974838 40.869834 -139.719078 -17.743518 15.608737 -28.261943 
0.400071 0.152785 1.007220 84.852888 -0.557641 90.823375 3.164643 4.575372 8.376636 -1.500892 3.776929 -6.875152 -1.669791 6.416015 -2.982861 0.000000 -0.000000 0.000000 -5.728112 -3.123863 3.733770 0.439023 -2.993652 -0.524731 9.051457 -3.615794 -5.507249 0.000000 -0.000000 0.000000 -5.357662 1.674567 -12.788774 4.169406 -4.855267 7.382762 -0.558333 2.888251 1.927629 -7.830637 5.701795 27.987412 -1.196871 -16.180755 -0.559247 25.384271 2.568098 -18.024462 -7.275323 -50.063421 -21.453950 98.122463 -49.170932 -97.274206 -4.327256 -31.621497 -52.358331 -12.960951 7.512514 -10.341580 25.897132 39.966567 -8.924433 -138.484692 42.533445 -135.099577 -16.874905 14.763290 -30.853514 
0.399837 0.152140 1.007252 84.663060 -0.440099 90.646550 3.303350 4.678297 8.561285 -1.508796 3.633486 -6.918788 -1.587431 6.669548 -2.948753 0.000000 -0.000000 0.000000 -5.614340 -3.097496 3.805314 0.475745 -2.702949 -0.478711 8.873065 -3.779490 -5.489374 0.000000 -0.000000 0.000000 -5.354876 1.846636 -12.820565 4.191655 -4.595272 7.755981 -0.429798 3.007978 1.642238 -6.794986 3.872577 27.883481 0.185553 -16.900387 -0.863776 24.555149 1.891941 -17.898714 -8.800040 -50.709513 -20.549779 96.921161 -48.417017 -96.582526 -1.751708 -29.380066 -53.199788 -12.845143 8.899723 -10.140805 27.765007 41.663865 -8.043776 -132.761320 45.402697 -130.908816 -15.180911 12.797400 -35.844864 
0.399414 0.151796 1.007528 84.509270 -0.303900 90.393447 3.438841 4.807079 8.745000 -1.457009 3.283088 -6.880377 -1.492521 7.182343 -2.921822 0.000000 -0.000000 0.000000 -5.450894 -3.144168 3.921643 0.475574 -2.205783 -0.428156 8.610685 -4.160530 -5.445285 0.000000 -0.000000 0.000000 -5.277478 2.068316 -12.778625 4.072903 -4.436732 8.220278 -0.179235 3.140114 1.095967 -5.569723 1.402119 27.653994 2.131016 -17.789036 -1.634003 23.590976 0.778060 -17.526676 -9.419496 -50.282128 -19.858537 95.075664 -48.647391 -96.587382 0.570401 -26.781774 -53.260342 -13.463435 10.731762 -9.784142 28.707397 42.362066 -7.508361 -125.873586 49.276746 -126.751782 -12.404860 11.351023 -41.836247 
